<svg xmlns="http://www.w3.org/2000/svg" viewBox="0 0 900 1035">
  <defs>
    <pattern id="floor-tile" width="90" height="90" patternUnits="userSpaceOnUse">
      <rect width="90" height="90" fill="#C9A97C"/>
      <rect x="0.5" y="0.5" width="89" height="89" fill="none" stroke="rgba(18,32,26,0.055)" stroke-width="1"/>
    </pattern>
  </defs>

  <!-- Floor -->
  <rect width="900" height="1035" fill="url(#floor-tile)"/>

  <!-- Back wall -->
  <rect width="900" height="136" fill="#D6C8A4"/>
  <rect y="134" width="900" height="5" fill="rgba(18,32,26,0.14)"/>

  <!-- Windows -->
  <rect x="160" y="18" width="190" height="90" rx="5" fill="#A8C8B4" fill-opacity="0.55" stroke="#8AA496" stroke-width="2"/>
  <line x1="255" y1="18" x2="255" y2="108" stroke="#8AA496" stroke-width="1.5"/>
  <line x1="160" y1="63" x2="350" y2="63" stroke="#8AA496" stroke-width="1.5"/>
  <rect x="155" y="105" width="200" height="8" rx="2" fill="#B8A880"/>

  <rect x="550" y="18" width="190" height="90" rx="5" fill="#A8C8B4" fill-opacity="0.55" stroke="#8AA496" stroke-width="2"/>
  <line x1="645" y1="18" x2="645" y2="108" stroke="#8AA496" stroke-width="1.5"/>
  <line x1="550" y1="63" x2="740" y2="63" stroke="#8AA496" stroke-width="1.5"/>
  <rect x="545" y="105" width="200" height="8" rx="2" fill="#B8A880"/>

  <!-- Plant top-left -->
  <ellipse cx="58" cy="245" rx="48" ry="48" fill="#1A6B3C"/>
  <ellipse cx="36" cy="218" rx="30" ry="30" fill="#157347"/>
  <ellipse cx="80" cy="218" rx="26" ry="26" fill="#1E8A4A"/>
  <ellipse cx="58" cy="200" rx="24" ry="24" fill="#157347"/>
  <rect x="50" y="280" width="16" height="28" rx="3" fill="#8B6B45"/>
  <ellipse cx="58" cy="281" rx="19" ry="6" fill="#6B4F35"/>

  <!-- Plant top-right -->
  <ellipse cx="842" cy="245" rx="48" ry="48" fill="#1A6B3C"/>
  <ellipse cx="820" cy="218" rx="30" ry="30" fill="#157347"/>
  <ellipse cx="864" cy="218" rx="26" ry="26" fill="#1E8A4A"/>
  <ellipse cx="842" cy="200" rx="24" ry="24" fill="#157347"/>
  <rect x="834" y="280" width="16" height="28" rx="3" fill="#8B6B45"/>
  <ellipse cx="842" cy="281" rx="19" ry="6" fill="#6B4F35"/>

  <!-- ── TABLE 1 · upper-left ── -->
  <ellipse cx="268" cy="342" rx="36" ry="24" fill="#9B7250"/><!-- chair top -->
  <ellipse cx="268" cy="474" rx="36" ry="24" fill="#9B7250"/><!-- chair bottom -->
  <ellipse cx="184" cy="408" rx="24" ry="36" fill="#9B7250"/><!-- chair left -->
  <ellipse cx="352" cy="408" rx="24" ry="36" fill="#9B7250"/><!-- chair right -->
  <circle cx="268" cy="408" r="80" fill="#A67C52"/>
  <circle cx="268" cy="408" r="74" fill="#BF9468"/>
  <circle cx="252" cy="392" r="22" fill="rgba(255,255,255,0.13)"/>
  <!-- Plaque -->
  <rect x="238" y="377" width="62" height="80" rx="8" fill="#FFFDF9"/>
  <rect x="238" y="377" width="62" height="80" rx="8" fill="none" stroke="rgba(18,32,26,0.09)" stroke-width="1"/>
  <!-- QR finder top-left -->
  <rect x="243" y="382" width="19" height="19" rx="2" fill="none" stroke="#12201A" stroke-width="2.2"/>
  <rect x="247" y="386" width="11" height="11" fill="#12201A"/>
  <!-- QR finder bottom-left -->
  <rect x="243" y="403" width="19" height="19" rx="2" fill="none" stroke="#12201A" stroke-width="2.2"/>
  <rect x="247" y="407" width="11" height="11" fill="#12201A"/>
  <!-- QR finder top-right -->
  <rect x="266" y="382" width="19" height="19" rx="2" fill="none" stroke="#12201A" stroke-width="2.2"/>
  <rect x="270" y="386" width="11" height="11" fill="#12201A"/>
  <!-- QR dots -->
  <rect x="266" y="403" width="5" height="5" fill="#12201A"/>
  <rect x="275" y="403" width="9" height="5" fill="#12201A"/>
  <rect x="266" y="412" width="9" height="5" fill="#12201A"/>
  <rect x="279" y="411" width="5" height="5" fill="#12201A"/>
  <rect x="279" y="419" width="5" height="5" fill="#12201A"/>
  <!-- Brand -->
  <text x="269" y="434" font-family="Georgia,serif" font-size="6.5" fill="#157347" text-anchor="middle" font-weight="bold" letter-spacing="0.4">MenuDigital</text>
  <text x="269" y="443" font-family="Arial,sans-serif" font-size="5.5" fill="#6C7C71" text-anchor="middle">Mesa 1</text>
  <rect x="253" y="447" width="32" height="5" rx="2.5" fill="#157347"/>

  <!-- ── TABLE 2 · right ── -->
  <ellipse cx="648" cy="490" rx="36" ry="24" fill="#9B7250"/>
  <ellipse cx="648" cy="622" rx="36" ry="24" fill="#9B7250"/>
  <ellipse cx="564" cy="556" rx="24" ry="36" fill="#9B7250"/>
  <ellipse cx="732" cy="556" rx="24" ry="36" fill="#9B7250"/>
  <circle cx="648" cy="556" r="80" fill="#A67C52"/>
  <circle cx="648" cy="556" r="74" fill="#BF9468"/>
  <circle cx="632" cy="540" r="22" fill="rgba(255,255,255,0.13)"/>
  <!-- Plaque -->
  <rect x="618" y="525" width="62" height="80" rx="8" fill="#FFFDF9"/>
  <rect x="618" y="525" width="62" height="80" rx="8" fill="none" stroke="rgba(18,32,26,0.09)" stroke-width="1"/>
  <rect x="623" y="530" width="19" height="19" rx="2" fill="none" stroke="#12201A" stroke-width="2.2"/>
  <rect x="627" y="534" width="11" height="11" fill="#12201A"/>
  <rect x="623" y="551" width="19" height="19" rx="2" fill="none" stroke="#12201A" stroke-width="2.2"/>
  <rect x="627" y="555" width="11" height="11" fill="#12201A"/>
  <rect x="646" y="530" width="19" height="19" rx="2" fill="none" stroke="#12201A" stroke-width="2.2"/>
  <rect x="650" y="534" width="11" height="11" fill="#12201A"/>
  <rect x="646" y="551" width="5" height="5" fill="#12201A"/>
  <rect x="655" y="551" width="9" height="5" fill="#12201A"/>
  <rect x="646" y="560" width="9" height="5" fill="#12201A"/>
  <rect x="659" y="559" width="5" height="5" fill="#12201A"/>
  <rect x="659" y="567" width="5" height="5" fill="#12201A"/>
  <text x="649" y="582" font-family="Georgia,serif" font-size="6.5" fill="#157347" text-anchor="middle" font-weight="bold" letter-spacing="0.4">MenuDigital</text>
  <text x="649" y="591" font-family="Arial,sans-serif" font-size="5.5" fill="#6C7C71" text-anchor="middle">Mesa 5</text>
  <rect x="633" y="595" width="32" height="5" rx="2.5" fill="#157347"/>

  <!-- ── TABLE 3 · lower-center ── -->
  <ellipse cx="390" cy="782" rx="36" ry="24" fill="#9B7250"/>
  <ellipse cx="390" cy="914" rx="36" ry="24" fill="#9B7250"/>
  <ellipse cx="306" cy="848" rx="24" ry="36" fill="#9B7250"/>
  <ellipse cx="474" cy="848" rx="24" ry="36" fill="#9B7250"/>
  <circle cx="390" cy="848" r="80" fill="#A67C52"/>
  <circle cx="390" cy="848" r="74" fill="#BF9468"/>
  <circle cx="374" cy="832" r="22" fill="rgba(255,255,255,0.13)"/>
  <!-- Plaque -->
  <rect x="360" y="817" width="62" height="80" rx="8" fill="#FFFDF9"/>
  <rect x="360" y="817" width="62" height="80" rx="8" fill="none" stroke="rgba(18,32,26,0.09)" stroke-width="1"/>
  <rect x="365" y="822" width="19" height="19" rx="2" fill="none" stroke="#12201A" stroke-width="2.2"/>
  <rect x="369" y="826" width="11" height="11" fill="#12201A"/>
  <rect x="365" y="843" width="19" height="19" rx="2" fill="none" stroke="#12201A" stroke-width="2.2"/>
  <rect x="369" y="847" width="11" height="11" fill="#12201A"/>
  <rect x="388" y="822" width="19" height="19" rx="2" fill="none" stroke="#12201A" stroke-width="2.2"/>
  <rect x="392" y="826" width="11" height="11" fill="#12201A"/>
  <rect x="388" y="843" width="5" height="5" fill="#12201A"/>
  <rect x="397" y="843" width="9" height="5" fill="#12201A"/>
  <rect x="388" y="852" width="9" height="5" fill="#12201A"/>
  <rect x="401" y="851" width="5" height="5" fill="#12201A"/>
  <rect x="401" y="859" width="5" height="5" fill="#12201A"/>
  <text x="391" y="874" font-family="Georgia,serif" font-size="6.5" fill="#157347" text-anchor="middle" font-weight="bold" letter-spacing="0.4">MenuDigital</text>
  <text x="391" y="883" font-family="Arial,sans-serif" font-size="5.5" fill="#6C7C71" text-anchor="middle">Mesa 4</text>
  <rect x="375" y="887" width="32" height="5" rx="2.5" fill="#157347"/>

  <!-- Phone scanning QR at table 3 -->
  <rect x="444" y="828" width="38" height="66" rx="6" fill="#1C1C1C" opacity="0.9"/>
  <rect x="446" y="832" width="34" height="54" rx="4" fill="#1A2B22"/>
  <rect x="448" y="834" width="30" height="24" rx="2" fill="#E8F3EC" opacity="0.95"/>
  <rect x="450" y="837" width="18" height="3" rx="1" fill="#157347"/>
  <rect x="450" y="843" width="25" height="2" rx="1" fill="rgba(18,32,26,0.3)"/>
  <rect x="450" y="847" width="21" height="2" rx="1" fill="rgba(18,32,26,0.2)"/>
  <rect x="450" y="851" width="23" height="2" rx="1" fill="rgba(18,32,26,0.2)"/>

  <!-- Plant bottom-right -->
  <ellipse cx="842" cy="920" rx="52" ry="52" fill="#1A6B3C"/>
  <ellipse cx="816" cy="892" rx="33" ry="33" fill="#157347"/>
  <ellipse cx="868" cy="896" rx="29" ry="29" fill="#1E8A4A"/>
  <ellipse cx="842" cy="874" rx="26" ry="26" fill="#157347"/>
  <rect x="834" y="958" width="16" height="30" rx="3" fill="#8B6B45"/>
  <ellipse cx="842" cy="959" rx="20" ry="6" fill="#6B4F35"/>
</svg>
